<?xml version="1.0" standalone="no"?>
<!DOCTYPE svg PUBLIC "-//W3C//DTD SVG 20010904//EN"
 "http://www.w3.org/TR/2001/REC-SVG-20010904/DTD/svg10.dtd">
<svg version="1.0" xmlns="http://www.w3.org/2000/svg"
 width="256.000000pt" height="200.000000pt" viewBox="0 0 256.000000 200.000000"
 preserveAspectRatio="xMidYMid meet">

<g transform="translate(0.000000,200.000000) scale(0.100000,-0.100000)"
fill="#000000" stroke="none">
<path d="M487 1869 c-26 -15 -38 -54 -27 -84 10 -26 70 -94 410 -464 118 -129
232 -254 253 -278 l39 -43 -21 -32 c-11 -18 -42 -55 -70 -82 l-50 -49 -12 26
c-10 23 -8 31 20 68 17 24 31 48 31 54 0 6 -23 33 -50 60 l-50 49 -55 -29 -54
-30 -45 24 c-44 25 -56 43 -56 92 0 39 -18 49 -91 49 -77 0 -84 -6 -94 -73 -7
-45 -11 -50 -52 -70 l-44 -22 -55 30 -54 29 -50 -49 c-27 -27 -50 -56 -50 -63
0 -8 14 -31 30 -52 35 -45 36 -49 10 -99 -15 -31 -26 -40 -57 -46 -71 -13 -74
-18 -71 -98 l3 -72 55 -10 c50 -10 57 -14 74 -50 l19 -40 -28 -51 c-33 -60
-30 -76 25 -129 40 -39 41 -40 68 -24 98 58 86 55 130 35 40 -18 52 -41 52
-101 0 -12 9 -34 21 -49 20 -26 22 -26 144 -26 l123 0 41 33 c22 17 142 146
267 285 124 139 229 252 233 250 4 -2 116 -121 248 -264 133 -144 254 -271
269 -283 25 -20 38 -21 220 -21 181 0 195 1 214 20 28 28 25 54 -12 97 -29 34
-221 241 -560 605 l-118 126 121 128 c138 145 510 552 552 602 32 40 35 84 7
112 -19 19 -33 20 -207 20 -162 0 -192 -3 -215 -18 -15 -9 -134 -132 -264
-272 -130 -140 -242 -261 -249 -268 -10 -11 -57 34 -264 255 -139 147 -264
276 -279 285 -23 15 -52 18 -192 18 -97 -1 -172 -5 -183 -11z m285 -971 c51
-28 103 -101 113 -158 25 -148 -106 -286 -252 -266 -146 20 -233 157 -191 300
15 50 89 127 138 143 52 18 142 9 192 -19z"/>
<path d="M608 794 c-30 -16 -58 -61 -58 -94 0 -61 69 -118 128 -104 37 9 80
51 87 85 9 40 -20 94 -60 113 -41 20 -62 20 -97 0z"/>
</g>
</svg>
